<svg id="Layer_1" data-name="Layer 1" xmlns="http://www.w3.org/2000/svg" viewBox="0 0 418.37 418.37"><defs><style>.cls-1{fill:none;stroke-width:0.88px;}.cls-1,.cls-2{stroke:#000;}.cls-1,.cls-2,.cls-3{stroke-miterlimit:10;}.cls-2,.cls-4{fill:#fff;}.cls-3{fill:#d00011;stroke:#fff;}</style></defs><title>samdark</title><path class="cls-1" d="M1026.21,379.85" transform="translate(-750.65 -330.81)"/><circle cx="209.19" cy="209.19" r="209.19"/><polygon class="cls-2" points="185.16 340.32 255.04 340.32 321.52 180.88 257.83 196.8 226.88 259.6 210.96 259.6 179.11 195.92 115.43 180.88 185.16 340.32"/><path class="cls-3" d="M929.68,526.71c1.5,4.53,1.59,8.6-.12,11.52-4.45,7.55-20.63,6.74-30.76,3.54-15.11-4.79-27-18.14-32.25-30Z" transform="translate(-750.65 -330.81)"/><path class="cls-3" d="M1009,526.78c-1.51,4.53-1.59,8.6.12,11.52,4.45,7.55,20.63,6.74,30.76,3.54,15.1-4.79,27-18.14,32.25-30Z" transform="translate(-750.65 -330.81)"/><path class="cls-4" d="M1034.57,712c6.9-10.81,14.21-21.27,21.58-31.7s15-20.67,22.62-30.86,15.48-20.25,23.35-30.28,15.86-20,24-29.78l-.33,6c-2.29-3.67-4.53-7.37-6.78-11.06s-4.48-7.4-6.7-11.12c-4.45-7.42-8.81-14.89-13.14-22.39s-8.57-15.05-12.68-22.69c-2.08-3.81-4.14-7.62-6.14-11.47s-4-7.7-5.94-11.6q4.06,5.1,8,10.29c2.64,3.45,5.22,6.94,7.78,10.43,5.19,7,10.19,14,15.19,21.09s9.89,14.21,14.72,21.39c2.43,3.58,4.85,7.17,7.23,10.78s4.79,7.2,7.15,10.83a5.09,5.09,0,0,1-.24,5.87l-.08.1c-7.82,10.07-15.79,20-23.8,29.92s-16.15,19.72-24.42,29.42-16.62,19.35-25.14,28.85S1043.6,702.94,1034.57,712Z" transform="translate(-750.65 -330.81)"/><line x1="344.88" y1="255.58" x2="272.94" y2="345.8"/><path class="cls-4" d="M1095.53,586.39a207.46,207.46,0,0,1-14.73,25.15q-8.08,12-17.09,23.27t-18.88,21.85a203.34,203.34,0,0,1-21.25,20,204.66,204.66,0,0,1,14.73-25.15q8.09-12,17.1-23.26t18.88-21.84A207.6,207.6,0,0,1,1095.53,586.39Z" transform="translate(-750.65 -330.81)"/><path class="cls-4" d="M968.29,528.86a36.18,36.18,0,0,1,11.62-26.57,35.21,35.21,0,0,1,5-3.77,43.2,43.2,0,0,1,11.37-4.83c3.92-1.12,7.68-1.69,11.47-2.43l5.74-.82c1.92-.27,3.85-.42,5.78-.62a139.94,139.94,0,0,1,23.25-.11c3.86.25,7.68.74,11.43,1.17s7.43,1,10.94,1.34l2.6.18,2.54,0a37,37,0,0,0,5-.4,30.78,30.78,0,0,0,9.5-2.9,16.25,16.25,0,0,0,6.9-6.32,13.84,13.84,0,0,0,1.6-4.55,16.19,16.19,0,0,0,.25-2.53v-.65a4.13,4.13,0,0,0,0-.56c-.06-.41-.13-.84-.23-1.26a19.43,19.43,0,0,0-5-9.27,21.34,21.34,0,0,0-9.42-5.59,21.17,21.17,0,0,1,10.59,4.29,21.89,21.89,0,0,1,6.85,9.66,14.79,14.79,0,0,1,.47,1.47c.07.26.13.52.19.83l.14.76a21.29,21.29,0,0,1,.34,3.11,18.55,18.55,0,0,1-1,6.38,19.68,19.68,0,0,1-3.24,5.75,25,25,0,0,1-4.79,4.41,34.74,34.74,0,0,1-11.49,5.13,47.5,47.5,0,0,1-6.13,1.12c-1,.09-2.08.16-3.11.23l-3,.05c-8-.11-15.3-1.05-22.64-1.39-3.66-.24-7.3-.28-10.94-.36s-7.29.09-10.94.24l-5.47.33-5.48.45c-3.64.41-7.38.71-10.8,1.3a40.76,40.76,0,0,0-9.81,2.8,31.74,31.74,0,0,0-8.53,5.57,38.92,38.92,0,0,0-6.77,8.23,43.61,43.61,0,0,0-2.61,4.87C969.65,525.32,969,527.07,968.29,528.86Z" transform="translate(-750.65 -330.81)"/><path class="cls-4" d="M931.83,361.11c-4.68,10.52-9.06,20.8-12.8,31.25a175.65,175.65,0,0,0-8.53,31.52c-1.64,10.53-1.82,21.18,1.48,30.92a42.86,42.86,0,0,0,7.58,13.58,68.13,68.13,0,0,0,12.27,11.26A43.17,43.17,0,0,1,916,472.16a40.57,40.57,0,0,1-11.66-14.08,50,50,0,0,1-5-17.77c-.07-.76-.18-1.53-.2-2.29l-.07-2.28c0-.76-.05-1.52,0-2.28l.08-2.27c0-.75.06-1.51.11-2.26l.23-2.25.23-2.24.33-2.21A109.59,109.59,0,0,1,911.42,389a124.76,124.76,0,0,1,9.13-14.77A91.66,91.66,0,0,1,931.83,361.11Z" transform="translate(-750.65 -330.81)"/><path class="cls-4" d="M1005.43,361.3a92.36,92.36,0,0,1,11.29,13.12,126,126,0,0,1,9.12,14.77,109.59,109.59,0,0,1,11.41,33.23l.34,2.21.23,2.24.22,2.25c0,.75.08,1.51.12,2.26l.07,2.27c0,.76,0,1.52,0,2.28l-.06,2.28c0,.76-.14,1.53-.21,2.29a50.23,50.23,0,0,1-5,17.77,40.79,40.79,0,0,1-11.66,14.08,43.28,43.28,0,0,1-15.87,7.48,67.79,67.79,0,0,0,12.27-11.26,42.86,42.86,0,0,0,7.58-13.58c3.3-9.74,3.12-20.39,1.49-30.92a176.53,176.53,0,0,0-8.54-31.52C1014.5,382.1,1010.11,371.82,1005.43,361.3Z" transform="translate(-750.65 -330.81)"/><path class="cls-4" d="M861.76,505.19q-2.89,5.85-5.94,11.59c-2,3.86-4.07,7.67-6.16,11.47-4.1,7.63-8.39,15.16-12.68,22.68s-8.68,15-13.13,22.4-8.93,14.82-13.48,22.18l-.32-6c8.11,9.83,16.06,19.78,24,29.77s15.7,20.08,23.35,30.28S872.6,670.06,880,680.46s14.68,20.89,21.56,31.7c-9-9.09-17.64-18.52-26.19-28S858.48,665,850.23,655.32s-16.37-19.55-24.41-29.43S809.84,606,802,596l-2.29-3,2-3q7.1-10.86,14.38-21.61T830.82,547c5-7.07,10-14.14,15.18-21.1,2.56-3.49,5.13-7,7.77-10.43S859.05,508.59,861.76,505.19Z" transform="translate(-750.65 -330.81)"/><line x1="86.47" y1="259.83" x2="158.45" y2="350.09"/><path class="cls-4" d="M837.11,590.64a205.68,205.68,0,0,1,21.25,20q9.92,10.54,18.89,21.84t17.11,23.28a203.52,203.52,0,0,1,14.73,25.16,204.49,204.49,0,0,1-21.25-20q-9.92-10.56-18.88-21.86t-17.1-23.28A207,207,0,0,1,837.11,590.64Z" transform="translate(-750.65 -330.81)"/><path class="cls-4" d="M968.15,527.79c-.67-1.79-1.35-3.54-2.17-5.22a40.51,40.51,0,0,0-2.62-4.87,38.58,38.58,0,0,0-6.76-8.23,31.74,31.74,0,0,0-8.53-5.57,40.78,40.78,0,0,0-9.81-2.81c-3.43-.58-7.16-.89-10.8-1.29l-5.48-.45-5.47-.33c-3.65-.16-7.3-.23-10.94-.24s-7.29.12-11,.35c-7.33.35-14.64,1.28-22.63,1.4l-3,0c-1-.07-2.08-.14-3.11-.23a47.19,47.19,0,0,1-6.13-1.12,34.88,34.88,0,0,1-11.5-5.13,24.66,24.66,0,0,1-4.78-4.42,19.55,19.55,0,0,1-3.24-5.75,18.23,18.23,0,0,1-1-6.37,19.86,19.86,0,0,1,.34-3.11l.14-.76c.06-.32.12-.57.19-.83.13-.51.29-1,.46-1.47a22,22,0,0,1,6.85-9.66,21.24,21.24,0,0,1,10.6-4.29,21.41,21.41,0,0,0-9.43,5.58,19.51,19.51,0,0,0-4.94,9.27c-.1.43-.17.85-.23,1.27a2.32,2.32,0,0,0-.05.56v.64a16.44,16.44,0,0,0,.25,2.54,13.92,13.92,0,0,0,1.6,4.55,16.19,16.19,0,0,0,6.9,6.32,30.44,30.44,0,0,0,9.49,2.89,37.11,37.11,0,0,0,5.05.41l2.53-.05,2.61-.18c3.51-.34,7.2-.83,10.94-1.33s7.56-.93,11.42-1.18a141.14,141.14,0,0,1,23.26.12c1.93.2,3.86.35,5.78.61l5.74.83c3.79.74,7.55,1.31,11.47,2.43a43,43,0,0,1,11.36,4.82,35.55,35.55,0,0,1,5,3.78,37.14,37.14,0,0,1,4.15,4.55A37.69,37.69,0,0,1,968.15,527.79Z" transform="translate(-750.65 -330.81)"/></svg>